{
  "asset": {
    "version": "2.0",
    "generator": "THREE.GLTFExporter"
  },
  "scenes": [
    {
      "name": "Scene",
      "nodes": [
        6,
        7,
        8
      ]
    }
  ],
  "scene": 0,
  "nodes": [
    {
      "matrix": [
        0.45107350187941214,
        0.736989571659021,
        3.22148390301408e-8,
        0,
        -0.7369279084760981,
        0.45103576100908355,
        -1.8051241168487183e-8,
        0,
        -3.221214366099443e-8,
        -1.8051241142919808e-8,
        0.8639999999999992,
        0,
        0,
        0,
        0,
        1
      ],
      "name": "URF-Height_Lampd_0",
      "extras": {
        "name": "URF-Height_Lampd_0"
      },
      "mesh": 0
    },
    {
      "matrix": [
        99.8637136003367,
        -1.0408340855860845e-15,
        -5.219071368541735,
        0,
        -5.219071368541729,
        -0.000004371139050718398,
        -99.8637136003366,
        0,
        -2.2813286468248426e-7,
        99.99999999999991,
        -0.000004365181771603942,
        0,
        0,
        0,
        0,
        1
      ],
      "name": "URF-Height",
      "extras": {
        "name": "URF-Height"
      },
      "children": [
        0
      ]
    },
    {
      "name": "RootNode",
      "extras": {
        "name": "RootNode"
      },
      "children": [
        1
      ]
    },
    {
      "matrix": [
        1,
        0,
        0,
        0,
        0,
        2.220446049250313e-16,
        1,
        0,
        0,
        -1,
        2.220446049250313e-16,
        0,
        0,
        0,
        0,
        1
      ],
      "name": "91aa8ae705db41b9a77132a467107dd2fbx",
      "extras": {
        "name": "91aa8ae705db41b9a77132a467107dd2.fbx"
      },
      "children": [
        2
      ]
    },
    {
      "name": "RootNode_(model_correction_matrix)",
      "extras": {
        "name": "RootNode (model correction matrix)"
      },
      "children": [
        3
      ]
    },
    {
      "matrix": [
        1,
        0,
        0,
        0,
        0,
        2.220446049250313e-16,
        -1,
        0,
        0,
        1,
        2.220446049250313e-16,
        0,
        0,
        0,
        0,
        1
      ],
      "name": "RootNode_(gltf_orientation_matrix)",
      "extras": {
        "name": "RootNode (gltf orientation matrix)"
      },
      "children": [
        4
      ]
    },
    {
      "matrix": [
        0.1,
        0,
        0,
        0,
        0,
        0.1,
        0,
        0,
        0,
        0,
        0.1,
        0,
        0,
        0,
        0,
        1
      ],
      "name": "scene.gltf",
      "children": [
        5
      ]
    },
    {
      "matrix": [
        1,
        0,
        0,
        0,
        0,
        1,
        0,
        0,
        0,
        0,
        1,
        0,
        0,
        0,
        -0.3134234235517095,
        1
      ],
      "name": "AmbientLight"
    },
    {
      "matrix": [
        9.680028639426007,
        0,
        0,
        0,
        0,
        5.095922250802391,
        0,
        0,
        0,
        0,
        3.4360566750235235,
        0,
        15.949210048546929,
        20.834555697296285,
        13.36227433361581,
        1
      ],
      "name": "DirectionalLight",
      "extensions": {
        "KHR_lights_punctual": {
          "light": 0
        }
      }
    }
  ],
  "bufferViews": [
    {
      "buffer": 0,
      "byteOffset": 0,
      "byteLength": 27780,
      "target": 34962,
      "byteStride": 12
    },
    {
      "buffer": 0,
      "byteOffset": 27780,
      "byteLength": 27780,
      "target": 34962,
      "byteStride": 12
    },
    {
      "buffer": 0,
      "byteOffset": 55560,
      "byteLength": 18520,
      "target": 34962,
      "byteStride": 8
    },
    {
      "buffer": 0,
      "byteOffset": 74080,
      "byteLength": 11028,
      "target": 34963
    }
  ],
  "buffers": [
    {
      "byteLength": 85108,
      "uri": "data:application/octet-stream;base64,"
    }
  ],
  "accessors": [
    {
      "bufferView": 0,
      "componentType": 5126,
      "count": 2315,
      "max": [
        0.9963463544845581,
        0.9859566688537598,
        0.9985400438308716
      ],
      "min": [
        -0.9914019703865051,
        -0.9961612820625305,
        -0.9982745051383972
      ],
      "type": "VEC3"
    },
    {
      "bufferView": 1,
      "componentType": 5126,
      "count": 2315,
      "max": [
        0.9484788775444031,
        1.0127918720245361,
        1.0016489028930664
      ],
      "min": [
        -1.0087165832519531,
        -1.0265377759933472,
        -0.9076517224311829
      ],
      "type": "VEC3"
    },
    {
      "bufferView": 2,
      "componentType": 5126,
      "count": 2315,
      "max": [
        1,
        1
      ],
      "min": [
        0,
        0
      ],
      "type": "VEC2"
    },
    {
      "bufferView": 3,
      "componentType": 5125,
      "count": 2757,
      "max": [
        2314
      ],
      "min": [
        0
      ],
      "type": "SCALAR"
    }
  ],
  "materials": [
    {
      "pbrMetallicRoughness": {
        "baseColorFactor": [
          0.207557,
          0.354688,
          0.0653474,
          1
        ],
        "metallicFactor": 0,
        "roughnessFactor": 1
      },
      "doubleSided": true,
      "name": "Lampd"
    }
  ],
  "meshes": [
    {
      "primitives": [
        {
          "mode": 4,
          "attributes": {
            "NORMAL": 0,
            "POSITION": 1,
            "TEXCOORD_0": 2
          },
          "indices": 3,
          "material": 0
        }
      ]
    }
  ],
  "extensions": {
    "KHR_lights_punctual": {
      "lights": [
        {
          "name": "DirectionalLight",
          "color": [
            1,
            1,
            1
          ],
          "intensity": 1,
          "type": "directional"
        }
      ]
    }
  },
  "extensionsUsed": [
    "KHR_lights_punctual"
  ]
}